<svg id="Layer_1" data-name="Layer 1" xmlns="http://www.w3.org/2000/svg" viewBox="0 0 759.77 173.62"><defs><style>.cls-1{fill:#3e57a1;}.cls-2{fill:none;}.cls-3{fill:#7311fb;}.cls-4{fill:#04cade;}</style></defs><path class="cls-1" d="M123.66,12.06c-2.43-2.58-5-3.78-7.78-3.61h-1a7.76,7.76,0,0,0-4.37.8,10.91,10.91,0,0,0-3.77,3.08,18.12,18.12,0,0,0-2.55,4.42,13.39,13.39,0,0,0-1,5.08V61.42a53,53,0,0,0-18.58-9.36,66.06,66.06,0,0,0-16.15-2.41,54.06,54.06,0,0,0-22.23,4.82,62.82,62.82,0,0,0-19.8,14.17v-.26A68.36,68.36,0,0,0,13.74,89q-4.26,11-4.25,25.41a66.7,66.7,0,0,0,4.74,25.15A67.94,67.94,0,0,0,27,160.14a59.74,59.74,0,0,0,18.7,13.91,52,52,0,0,0,22.59,5.08,49.68,49.68,0,0,0,22.23-5.21,65,65,0,0,0,18.82-14,67.43,67.43,0,0,0,13.12-20.6,64.52,64.52,0,0,0,4.86-24.88V20.49A12.11,12.11,0,0,0,123.66,12.06ZM97.92,128.46a37.08,37.08,0,0,1-7,11.6A34.82,34.82,0,0,1,80.58,148a27,27,0,0,1-12.31,2.93A27.71,27.71,0,0,1,55.85,148a33.12,33.12,0,0,1-10.29-7.91,38.57,38.57,0,0,1-6.94-11.6,40.62,40.62,0,0,1,0-28.44,38.39,38.39,0,0,1,6.94-11.73,33.09,33.09,0,0,1,10.29-7.9,27.59,27.59,0,0,1,12.42-2.94,26.07,26.07,0,0,1,12.31,3.06A34.83,34.83,0,0,1,90.87,88.8a40.57,40.57,0,0,1,7,11.86,37,37,0,0,1,2.58,13.52A39,39,0,0,1,97.92,128.46Z" transform="translate(-9.49 -8.15)"/><path class="cls-1" d="M252.05,89.73a72.51,72.51,0,0,0-13.14-21,65.6,65.6,0,0,0-19-14.56,49.31,49.31,0,0,0-45.38,0,67.45,67.45,0,0,0-32,35.59,67.09,67.09,0,0,0-4.75,24.94,71,71,0,0,0,17.64,46.91,60.77,60.77,0,0,0,19,14.42,46.59,46.59,0,0,0,22.76,4.72,65.29,65.29,0,0,0,17-2.7,37.55,37.55,0,0,0,14.36-8.09l-.24.54a9,9,0,0,0,2.55-4.31,19.13,19.13,0,0,0,.61-4.58,14.35,14.35,0,0,0-3.29-9,12.11,12.11,0,0,0-8.63-4.71,11.29,11.29,0,0,0-7.06,2.42q-2.69,1.08-6.33,2.43a25.28,25.28,0,0,1-8.76,1.35q-9.25,0-18.62-5.93t-16.42-19.95h81.76a11,11,0,0,0,9.25-3.91,14.16,14.16,0,0,0,3.65-9.57A64.27,64.27,0,0,0,252.05,89.73Zm-87.3,11.19a1.49,1.49,0,0,1,.45-1,45.69,45.69,0,0,1,13.18-16,30.49,30.49,0,0,1,19-6.49A30.16,30.16,0,0,1,216,83.82a49.87,49.87,0,0,1,13.86,16.35v.5c0,.16.07.25.22.25Z" transform="translate(-9.49 -8.15)"/><path class="cls-1" d="M353.81,56.65a8.81,8.81,0,0,0-1.2-2.1,15,15,0,0,0-14.22-5.67,11.79,11.79,0,0,0-9.84,7.52c-8.1,20.09-22.76,66.5-22.76,66.5L280.91,57.33l.25.27a13.12,13.12,0,0,0-6.78-7.72,12.35,12.35,0,0,0-10-.41l.25-.27a13,13,0,0,0-7,7.45,14.56,14.56,0,0,0-.12,10.71l34.69,104.1c1,3.07,3.62,5.28,5.93,6.64a17.49,17.49,0,0,0,8.14,2,9.66,9.66,0,0,0,7.26-3.25,22.13,22.13,0,0,0,4.07-5.42l18.1-52.05q9.23-26.56,18.1-52A15.08,15.08,0,0,0,353.81,56.65Z" transform="translate(-9.49 -8.15)"/><path class="cls-1" d="M465.56,91.88a68.56,68.56,0,0,0-12.77-20.66,62.17,62.17,0,0,0-18.61-14.09,50.07,50.07,0,0,0-22.5-5.23,58.65,58.65,0,0,0-23.23,5.77,62.25,62.25,0,0,0-18.85,14A63.4,63.4,0,0,0,357.08,92a69,69,0,0,0-4.5,25.09,70.09,70.09,0,0,0,4.62,25.76,64.69,64.69,0,0,0,12.65,20.53,57.25,57.25,0,0,0,18.72,13.55,55,55,0,0,0,22.87,4.83,53.19,53.19,0,0,0,23.11-5.1,58.41,58.41,0,0,0,18.6-13.95,68.33,68.33,0,0,0,12.53-20.53,69.95,69.95,0,0,0-.12-50.31Zm-23.71,39.28a39.24,39.24,0,0,1-7.12,11.78,33,33,0,0,1-10.55,8,29.34,29.34,0,0,1-25.48,0,33,33,0,0,1-10.56-8A39.21,39.21,0,0,1,381,131.16a38,38,0,0,1-2.64-14A38.43,38.43,0,0,1,381,102.68a37.9,37.9,0,0,1,7.11-11.52,32.3,32.3,0,0,1,10.56-7.73,30.33,30.33,0,0,1,12.74-2.78h.23q14.22,1,23.18,11.27t9.64,25.19A38,38,0,0,1,441.85,131.16Z" transform="translate(-9.49 -8.15)"/><path class="cls-1" d="M592,86.14A64.31,64.31,0,0,0,579.2,66.3a58,58,0,0,0-18.56-13,54.35,54.35,0,0,0-22.18-4.69,52.68,52.68,0,0,0-23.14,5.1A56.5,56.5,0,0,0,497,67.64a69,69,0,0,0-12.29,20.64,72.56,72.56,0,0,0-4.83,25.2V166a12.12,12.12,0,0,0,12.06,12.33c3.21,0,13.36-.69,13.05-13.13V114.87c0-5.18-.08-10,1.77-14.47a39.44,39.44,0,0,1,7.48-11.8,33.77,33.77,0,0,1,10.84-7.9,31.15,31.15,0,0,1,13.14-2.82A31.55,31.55,0,0,1,552.08,81a35.63,35.63,0,0,1,11.09,8.31,38.48,38.48,0,0,1,7.35,12.2c1.77,4.65.66,9.65.66,15V167c0,3.58,2.5,13.14,13.81,12.33a12.12,12.12,0,0,0,8.31-4,12.87,12.87,0,0,0,3.5-9.11V111.07A64,64,0,0,0,592,86.14Z" transform="translate(-9.49 -8.15)"/><path class="cls-1" d="M630.89,12.63a12.05,12.05,0,0,0-9.39-4.48,12.71,12.71,0,0,0-9.79,4.48,15.21,15.21,0,0,0-4,10.53,15.59,15.59,0,0,0,4,10.83,12.71,12.71,0,0,0,9.79,4.48A12.05,12.05,0,0,0,630.89,34a15.86,15.86,0,0,0,3.91-10.83A15.46,15.46,0,0,0,630.89,12.63Zm-.13,41.75a12.92,12.92,0,0,0-9.26-4,13.52,13.52,0,0,0-9.79,4,13.11,13.11,0,0,0-4,9.75v101a13.65,13.65,0,0,0,13.83,14,12.88,12.88,0,0,0,9.26-3.95,13.41,13.41,0,0,0,4-10v-101A13.11,13.11,0,0,0,630.76,54.38Z" transform="translate(-9.49 -8.15)"/><rect class="cls-2" x="703.43" y="87.71" width="19" transform="translate(151.85 539.68) rotate(-46.85)"/><polygon class="cls-2" points="697.05 127.3 702.24 133.11 697.05 127.3 697.05 127.3"/><path class="cls-3" d="M769.26,162.44a17.7,17.7,0,0,1-34.9,4.18,17.47,17.47,0,0,1-.52-4.18,17.7,17.7,0,0,1,17.35-17.69l.36,0A17.71,17.71,0,0,1,769.26,162.44Z" transform="translate(-9.49 -8.15)"/><path class="cls-1" d="M701.23,88.78,671.5,55.48a15.26,15.26,0,0,0-10.35-5,12.35,12.35,0,0,0-9.72,3.22,12.83,12.83,0,0,0-4.07,9.91,15.24,15.24,0,0,0,4.49,10.59l34.46,38.61a25.06,25.06,0,0,1,6.31-14.41Z" transform="translate(-9.49 -8.15)"/><path class="cls-1" d="M686.3,117.41l-34.48,38.43a15.64,15.64,0,0,0-4.7,10.79,12.34,12.34,0,0,0,3.7,9.55,12.85,12.85,0,0,0,10.1,3.58,15.64,15.64,0,0,0,10.55-5.22l29.69-33.09-8.57-9.59A25,25,0,0,1,686.3,117.41Z" transform="translate(-9.49 -8.15)"/><path class="cls-4" d="M744.31,93.35l17.2-19.17A15.24,15.24,0,0,0,766,63.59a12.81,12.81,0,0,0-4.08-9.91,12.31,12.31,0,0,0-9.71-3.22,15.28,15.28,0,0,0-10.36,5L724.62,74.69l-5.34,6L706.59,94.79h0l-8,8.93a17.09,17.09,0,0,0,0,22.81l8,8.93h0l5.19,5.81,6.68,7.49,7.9,8.85a25.77,25.77,0,0,1,18.53-20l-8.19-9.17-5.36-6-6.53-7.31L739,99.31Z" transform="translate(-9.49 -8.15)"/></svg>